<svg xmlns="http://www.w3.org/2000/svg" viewBox="0 0 512 512" role="img" aria-labelledby="title desc">
  <title id="title">KararaDesk logo</title>
  <desc id="desc">A violet and mint ticket-shaped K on a dark rounded square.</desc>
  <defs>
    <linearGradient id="bg" x1="72" y1="54" x2="440" y2="458" gradientUnits="userSpaceOnUse">
      <stop stop-color="#9d8aff"/>
      <stop offset="0.55" stop-color="#7b5cff"/>
      <stop offset="1" stop-color="#5ee0a0"/>
    </linearGradient>
    <linearGradient id="shine" x1="178" y1="135" x2="338" y2="385" gradientUnits="userSpaceOnUse">
      <stop stop-color="#ffffff"/>
      <stop offset="1" stop-color="#e6e0ff"/>
    </linearGradient>
    <filter id="shadow" x="-25%" y="-25%" width="150%" height="150%">
      <feDropShadow dx="0" dy="22" stdDeviation="24" flood-color="#05050b" flood-opacity=".45"/>
    </filter>
  </defs>
  <rect width="512" height="512" rx="132" fill="#11111c"/>
  <rect x="28" y="28" width="456" height="456" rx="112" fill="url(#bg)" filter="url(#shadow)"/>
  <path d="M150 128c0-18 14-32 32-32h148c18 0 32 14 32 32v42c-27 0-49 22-49 49s22 49 49 49v116c0 18-14 32-32 32H182c-18 0-32-14-32-32V268c27 0 49-22 49-49s-22-49-49-49v-42Z" fill="#11111c" opacity=".96"/>
  <path d="M210 150v212h46v-70l23-24 59 94h55l-82-128 74-84h-58l-71 85v-85h-46Z" fill="url(#shine)"/>
  <path d="M181 151v210" stroke="#5ee0a0" stroke-width="10" stroke-linecap="round" stroke-dasharray="2 25" opacity=".9"/>
</svg>
